<svg width="20px" height="20px" viewBox="0 0 20 20" version="1.1" xmlns="http://www.w3.org/2000/svg">
  <polygon id="Shape" points="13.8095238 5.52380952 10 9.33333333 6.19047619 5.52380952 5.52380952 6.19047619 9.33333333 10 5.52380952 13.8095238 6.19047619 14.4761905 10 10.6666667 13.8095238 14.4761905 14.4761905 13.8095238 10.6666667 10 14.4761905 6.19047619"></polygon>
  <path d="M10,0 C4.47619048,0 0,4.47619048 0,10 C0,15.5238095 4.47619048,20 10,20 C15.5238095,20 20,15.5238095 20,10 C20,4.47619048 15.5238095,0 10,0 Z M10,19.047619 C5,19.047619 0.952380952,15 0.952380952,10 C0.952380952,5 5,0.952380952 10,0.952380952 C15,0.952380952 19.047619,5 19.047619,10 C19.047619,15 15,19.047619 10,19.047619 Z" />
</svg>
