<svg width="15px" height="15px" viewBox="0 0 15 15" version="1.1" xmlns="http://www.w3.org/2000/svg">
  <path d="M7.5,0 C3.35784314,0 0,3.35784314 0,7.5 C0,11.6421569 3.35784314,15 7.5,15 C11.6421569,15 15,11.6421569 15,7.5 C15,3.35784314 11.6421569,0 7.5,0 Z M10.7407407,4.775651 L7.8939724,11.3030397 C7.852604,11.3979666 7.75897396,11.4585279 7.65639589,11.4585279 C7.65081959,11.4585279 7.64537296,11.4585279 7.63979666,11.4580091 C7.5308642,11.4510063 7.43788256,11.3766988 7.40727773,11.2716568 L6.61492375,8.55975724 L3.90302417,7.76740326 C3.79824152,7.73679842 3.72393402,7.64381679 3.71693122,7.53501401 C3.70992842,7.42595186 3.77204586,7.32441125 3.87203029,7.28083826 L10.3992893,4.43419961 C10.4970692,4.39179375 10.6107999,4.41293184 10.6862745,4.48853616 C10.7617491,4.56388111 10.7832763,4.67787115 10.7407407,4.775651 Z" />
</svg>
