<svg width="15px" height="22px" viewBox="0 0 15 22" version="1.1" xmlns="http://www.w3.org/2000/svg">
    <ellipse id="Oval" cx="7.5" cy="7.23214286" rx="1.60714286" ry="1.60714286" />
    <path d="M7.5,21.8035714 L7.92857143,21.2142857 C8.22321429,20.8125 15,11.4642857 15,7.5 C15,3.375 11.625,0 7.5,0 C3.375,0 0,3.375 0,7.5 C0,11.4642857 6.77678571,20.8125 7.07142857,21.2142857 L7.5,21.8035714 Z M4.82142857,7.23214286 C4.82142857,5.75892857 6.02678571,4.55357143 7.5,4.55357143 C8.97321429,4.55357143 10.1785714,5.75892857 10.1785714,7.23214286 C10.1785714,8.70535714 8.97321429,9.91071429 7.5,9.91071429 C6.02678571,9.91071429 4.82142857,8.70535714 4.82142857,7.23214286 Z"/>
</svg>
