<svg width="15px" height="32px" viewBox="0 0 15 32" version="1.1" xmlns="http://www.w3.org/2000/svg">
  <path d="M5.9375,29.6911084 L5.9375,15.7783915 C5.9375,15.2592177 5.53352844,14.7234762 5.03520419,14.5834286 L5.00415,14.5747012 C2.08900144,13.5462828 0,10.7670976 0,7.5 C0,3.35786437 3.35786437,0 7.5,0 C11.6421356,0 15,3.35786437 15,7.5 C15,10.7660227 12.9123728,13.5444541 9.99872687,14.5736856 L9.96757694,14.5824468 C9.46497787,14.723807 9.0625,15.2584794 9.0625,15.7783915 L9.0625,29.6911084 C9.0625,30.5447542 8.36294494,31.25 7.5,31.25 C6.63103881,31.25 5.9375,30.5520605 5.9375,29.6911084 Z M12.5988609,5.12277225 C11.2859542,2.30723494 7.93918919,1.08911206 5.12365188,2.40201869 C4.81081438,2.54789719 4.67546738,2.91976 4.82134588,3.2325975 C4.96722444,3.54543494 5.33908719,3.68078194 5.65192469,3.53490344 C7.84178706,2.51375381 10.4448266,3.46118275 11.4659761,5.65104513 C11.6118547,5.96388256 11.9837174,6.09922956 12.2965549,5.95335106 C12.6093924,5.80747256 12.7447394,5.43560975 12.5988609,5.12277225 Z" />
</svg>
